{"title":"About Time 2013 BDRip 1080p GORESEWAGE.mkv","uid":9732594,"size":13063567133,"categoryP":"video","categoryS":"hd___movies","magnet":"?xt=urn:btih:60f16e1410b104731f6a72c68281d00d16e94181&amp;dn=About+Time+2013+BDRip+1080p+GORESEWAGE.mkv&amp;tr=udp%3A%2F%2Ftracker.openbittorrent.com%3A80&amp;tr=udp%3A%2F%2Fopen.demonii.com%3A1337&amp;tr=udp%3A%2F%2Ftracker.coppersurfer.tk%3A6969&amp;tr=udp%3A%2F%2Fexodus.desync.com%3A6969","seeders":8,"leechers":0,"uploader":"ABSTAIN","files":1,"time":1394406867,"description":"C:/GORESEWAGE/About Time 2013 BDRip 1080p GORESEWAGE.mkv\n  General\n    Unique ID : 228595310009516877900848007239212595321 (0xABF9DAF2EF256DFEAF3145CFA5E9F879)\n    Complete name : C:/GORESEWAGE/About Time 2013 BDRip 1080p GORESEWAGE.mkv\n    Format : Matroska\n    Format version : Version 4 / Version 2\n    File size : 12.2 GiB\n    Duration : 2h 3mn\n    Overall bit rate : 14.1 Mbps\n    Movie name : About Time 2013 BDRip 1080p GORESEWAGE\n    Encoded date : UTC 2014-03-09 21:26:57\n    Writing application : mkvmerge v6.8.0 ('Theme for Great Cities') 64bit built on Mar  2 2014 21:34:26\n    Writing library : libebml v1.3.0 + libmatroska v1.4.1\n    Attachment : Yes\n  Video #1\n    ID : 1\n    Format : AVC\n    Format/Info : Advanced Video Codec\n    Format profile : &lt;a class=&quot;__cf_email__&quot; href=&quot;/cdn-cgi/l/email-protection&quot; data-cfemail=&quot;da92b3bdb29a96eef4eb&quot;&gt;[email&amp;#160;protected]&lt;/a&gt;&lt;script cf-hash='f9e31' type=&quot;text/javascript&quot;&gt;\n/* &lt;![CDATA[ */!function(){try{var t=&quot;currentScript&quot;in document?document.currentScript:function(){for(var t=document.getElementsByTagName(&quot;script&quot;),e=t.length;e--;)if(t[e].getAttribute(&quot;cf-hash&quot;))return t[e]}();if(t&amp;&amp;t.previousSibling){var e,r,n,i,c=t.previousSibling,a=c.getAttribute(&quot;data-cfemail&quot;);if(a){for(e=&quot;&quot;,r=parseInt(a.substr(0,2),16),n=2;a.length-n;n+=2)i=parseInt(a.substr(n,2),16)^r,e+=String.fromCharCode(i);e=document.createTextNode(e),c.parentNode.replaceChild(e,c)}}}catch(u){}}();/* ]]&gt; */&lt;/script&gt;\n    Format settings, CABAC : Yes\n    Format settings, ReFrames : 5 frames\n    Codec ID : V_MPEG4/ISO/AVC\n    Duration : 2h 3mn\n    Bit rate : 11.2 Mbps\n    Width : 1 920 pixels\n    Height : 800 pixels\n    Display aspect ratio : 2.40:1\n    Frame rate mode : Constant\n    Frame rate : 23.976 fps\n    Color space : YUV\n    Chroma subsampling : 4:2:0\n    Bit depth : 8 bits\n    Scan type : Progressive\n    Bits/(Pixel*Frame) : 0.303\n    Stream size : 9.63 GiB (79%)\n    Title : About Time 2013 BDRip 1080p GORESEWAGE\n    Writing library : x264 core 140 r2377+40 929f149 tMod [8-bit@4:2:0 X86_64]\n    Encoding settings : cabac=1 / ref=5 / deblock=1:-3:-3 / analyse=0x3:0x113 / me=umh / subme=11 / psy=1 / fade_compensate=0.00 / psy_rd=1.10:0.00 / mixed_ref=1 / me_range=32 / chroma_me=1 / trellis=2 / 8x8dct=1 / cqm=0 / deadzone=21,11 / fast_pskip=0 / chroma_qp_offset=-2 / threads=18 / lookahead_threads=3 / sliced_threads=0 / nr=0 / decimate=0 / interlaced=0 / bluray_compat=0 / constrained_intra=0 / fgo=0 / bframes=8 / b_pyramid=2 / b_adapt=2 / b_bias=0 / direct=3 / weightb=1 / open_gop=0 / weightp=2 / keyint=240 / keyint_min=24 / scenecut=40 / intra_refresh=0 / rc=crf / mbtree=0 / crf=17.0000 / qcomp=0.70 / qpmin=0:0:0 / qpmax=69:69:69 / qpstep=4 / ip_ratio=1.20 / pb_ratio=1.20 / aq=4:0.85 / aq-sensitivity=10.00 / aq-factor=1.00:1.00:1.00 / aq2=0 / aq3=0\n    Language : English\n    Default : Yes\n    Forced : No\n  Audio #2\n    ID : 2\n    Format : DTS\n    Format/Info : Digital Theater Systems\n    Mode : 16\n    Format settings, Endianness : Big\n    Codec ID : A_DTS\n    Duration : 2h 3mn\n    Bit rate mode : Constant\n    Bit rate : 768 Kbps\n    Channel count : 6 channels\n    Channel positions : Front: L C R, Side: L R, LFE\n    Sampling rate : 48.0 KHz\n    Bit depth : 24 bits\n    Compression mode : Lossy\n    Stream size : 678 MiB (5%)\n    Title : Dub BD CEE\n    Language : Russian\n    Default : Yes\n    Forced : No\n  Audio #3\n    ID : 3\n    Format : AC-3\n    Format/Info : Audio Coding 3\n    Mode extension : CM (complete main)\n    Format settings, Endianness : Big\n    Codec ID : A_AC3\n    Duration : 2h 3mn\n    Bit rate mode : Constant\n    Bit rate : 192 Kbps\n    Channel count : 2 channels\n    Channel positions : Front: L R\n    Sampling rate : 48.0 KHz\n    Bit depth : 16 bits\n    Compression mode : Lossy\n    Stream size : 169 MiB (1%)\n    Title : Dub Line\n    Language : Ukrainian\n    Default : No\n    Forced : No\n  Audio #4\n    ID : 4\n    Format : DTS\n    Format/Info : Digital Theater Systems\n    Mode : 16\n    Format settings, Endianness : Big\n    Codec ID : A_DTS\n    Duration : 2h 3mn\n    Bit rate mode : Constant\n    Bit rate : 1 509 Kbps\n    Channel count : 6 channels\n    Channel positions : Front: L C R, Side: L R, LFE\n    Sampling rate : 48.0 KHz\n    Bit depth : 24 bits\n    Compression mode : Lossy\n    Stream size : 1.30 GiB (11%)\n    Title : Original\n    Language : English\n    Default : No\n    Forced : No\n  Audio #5\n    ID : 5\n    Format : AC-3\n    Format/Info : Audio Coding 3\n    Format profile : Dolby Digital\n    Mode extension : CM (complete main)\n    Format settings, Endianness : Big\n    Codec ID : A_AC3\n    Duration : 2h 3mn\n    Bit rate mode : Constant\n    Bit rate : 192 Kbps\n    Channel count : 2 channels\n    Channel positions : Front: L R\n    Sampling rate : 48.0 KHz\n    Bit depth : 16 bits\n    Compression mode : Lossy\n    Stream size : 169 MiB (1%)\n    Title : Commentary by director Richard Curtis &amp; cast members Domhnall Gleeson, Bill Nighy, Vanessa Kirby, Lydia Wilson &amp; Tom Hollander\n    Language : English\n    Default : No\n    Forced : No\n  Text #6\n    ID : 6\n    Format : UTF-8\n    Codec ID : S_TEXT/UTF8\n    Codec ID/Info : UTF-8 Plain Text\n    Title : Forced BD CEE\n    Language : Russian\n    Default : Yes\n    Forced : No\n  Text #7\n    ID : 7\n    Format : UTF-8\n    Codec ID : S_TEXT/UTF8\n    Codec ID/Info : UTF-8 Plain Text\n    Title : Full BD CEE\n    Language : Russian\n    Default : No\n    Forced : No\n  Text #8\n    ID : 8\n    Format : UTF-8\n    Codec ID : S_TEXT/UTF8\n    Codec ID/Info : UTF-8 Plain Text\n    Title : Full BD CEE\n    Language : Ukrainian\n    Default : No\n    Forced : No\n  Text #9\n    ID : 9\n    Format : UTF-8\n    Codec ID : S_TEXT/UTF8\n    Codec ID/Info : UTF-8 Plain Text\n    Title : Full\n    Language : English\n    Default : No\n    Forced : No\n  Text #10\n    ID : 10\n    Format : UTF-8\n    Codec ID : S_TEXT/UTF8\n    Codec ID/Info : UTF-8 Plain Text\n    Title : SDH\n    Language : English\n    Default : No\n    Forced : No\n  Text #11\n    ID : 11\n    Format : UTF-8\n    Codec ID : S_TEXT/UTF8\n    Codec ID/Info : UTF-8 Plain Text\n    Title : SDH Colored\n    Language : English\n    Default : No\n    Forced : No\n  Text #12\n    ID : 12\n    Format : UTF-8\n    Codec ID : S_TEXT/UTF8\n    Codec ID/Info : UTF-8 Plain Text\n    Title : Commentary by director Richard Curtis &amp; cast members Domhnall Gleeson, Bill Nighy, Vanessa Kirby, Lydia Wilson &amp; Tom Hollander\n    Language : English\n    Default : No\n    Forced : No\n  Text #13\n    ID : 13\n    Format : UTF-8\n    Codec ID : S_TEXT/UTF8\n    Codec ID/Info : UTF-8 Plain Text\n    Title : Full\n    Language : Chinese\n    Default : No\n    Forced : No\n  Text #14\n    ID : 14\n    Format : UTF-8\n    Codec ID : S_TEXT/UTF8\n    Codec ID/Info : UTF-8 Plain Text\n    Title : Full\n    Language : Croatian\n    Default : No\n    Forced : No\n  Text #15\n    ID : 15\n    Format : UTF-8\n    Codec ID : S_TEXT/UTF8\n    Codec ID/Info : UTF-8 Plain Text\n    Title : Full\n    Language : Czech\n    Default : No\n    Forced : No\n  Text #16\n    ID : 16\n    Format : UTF-8\n    Codec ID : S_TEXT/UTF8\n    Codec ID/Info : UTF-8 Plain Text\n    Title : Full\n    Language : Estonian\n    Default : No\n    Forced : No\n  Text #17\n    ID : 17\n    Format : UTF-8\n    Codec ID : S_TEXT/UTF8\n    Codec ID/Info : UTF-8 Plain Text\n    Title : Full\n    Language : Greek\n    Default : No\n    Forced : No\n  Text #18\n    ID : 18\n    Format : UTF-8\n    Codec ID : S_TEXT/UTF8\n    Codec ID/Info : UTF-8 Plain Text\n    Title : Full\n    Language : Hungarian\n    Default : No\n    Forced : No\n  Text #19\n    ID : 19\n    Format : UTF-8\n    Codec ID : S_TEXT/UTF8\n    Codec ID/Info : UTF-8 Plain Text\n    Title : Full\n    Language : Latvian\n    Default : No\n    Forced : No\n  Text #20\n    ID : 20\n    Format : UTF-8\n    Codec ID : S_TEXT/UTF8\n    Codec ID/Info : UTF-8 Plain Text\n    Title : Full\n    Language : Lithuanian\n    Default : No\n    Forced : No\n  Text #21\n    ID : 21\n    Format : UTF-8\n    Codec ID : S_TEXT/UTF8\n    Codec ID/Info : UTF-8 Plain Text\n    Title : Full\n    Language : Polish\n    Default : No\n    Forced : No\n  Text #22\n    ID : 22\n    Format : UTF-8\n    Codec ID : S_TEXT/UTF8\n    Codec ID/Info : UTF-8 Plain Text\n    Title : Full BRA\n    Language : Portuguese\n    Default : No\n    Forced : No\n  Text #23\n    ID : 23\n    Format : UTF-8\n    Codec ID : S_TEXT/UTF8\n    Codec ID/Info : UTF-8 Plain Text\n    Title : Full\n    Language : Romanian\n    Default : No\n    Forced : No\n  Text #24\n    ID : 24\n    Format : UTF-8\n    Codec ID : S_TEXT/UTF8\n    Codec ID/Info : UTF-8 Plain Text\n    Title : Full\n    Language : Slovenian\n    Default : No\n    Forced : No\n  Text #25\n    ID : 25\n    Format : UTF-8\n    Codec ID : S_TEXT/UTF8\n    Codec ID/Info : UTF-8 Plain Text\n    Title : Full\n    Language : Spanish\n    Default : No\n    Forced : No\n  Text #26\n    ID : 26\n    Format : UTF-8\n    Codec ID : S_TEXT/UTF8\n    Codec ID/Info : UTF-8 Plain Text\n    Title : Full\n    Language : Turkish\n    Default : No\n    Forced : No\n  Menu\n    00:00:00.000 : :Chapter 01\n    00:03:58.071 : :Chapter 02\n    00:10:11.902 : :Chapter 03\n    00:17:26.295 : :Chapter 04\n    00:20:38.111 : :Chapter 05\n    00:26:04.396 : :Chapter 06\n    00:32:44.003 : :Chapter 07\n    00:40:26.590 : :Chapter 08\n    00:45:17.965 : :Chapter 09\n    00:49:43.438 : :Chapter 10\n    00:54:50.870 : :Chapter 11\n    01:03:44.529 : :Chapter 12\n    01:09:29.373 : :Chapter 13\n    01:16:28.000 : :Chapter 14\n    01:21:35.724 : :Chapter 15\n    01:27:24.447 : :Chapter 16\n    01:34:52.812 : :Chapter 17\n    01:43:48.847 : :Chapter 18\n    01:49:32.315 : :Chapter 19\n    01:57:03.141 : :Chapter 20","torrent":{"xt":"urn:btih:60f16e1410b104731f6a72c68281d00d16e94181","amp;dn":"About+Time+2013+BDRip+1080p+GORESEWAGE.mkv","amp;tr":["udp%3A%2F%2Ftracker.openbittorrent.com%3A80","udp%3A%2F%2Fopen.demonii.com%3A1337","udp%3A%2F%2Ftracker.coppersurfer.tk%3A6969","udp%3A%2F%2Fexodus.desync.com%3A6969"],"infoHash":"60f16e1410b104731f6a72c68281d00d16e94181","infoHashBuffer":{"type":"Buffer","data":[96,241,110,20,16,177,4,115,31,106,114,198,130,129,208,13,22,233,65,129]},"announce":[],"urlList":[]}}